<svg xmlns="http://www.w3.org/2000/svg" width="960" height="720" viewBox="0 0 960 720"><defs><radialGradient id="b"><stop stop-color="#e35f24"/><stop offset="1" stop-color="#050607"/></radialGradient><linearGradient id="a"><stop stop-color="#ffd15b"/><stop offset=".35" stop-color="#e35f24"/><stop offset="1" stop-color="#5a1e16"/></linearGradient><filter id="g"><feGaussianBlur stdDeviation="12" result="x"/><feMerge><feMergeNode in="x"/><feMergeNode in="SourceGraphic"/></feMerge></filter></defs><rect width="960" height="720" fill="url(#b)"/><g opacity=".22" fill="none" stroke="#ffd15b" stroke-width="3"><circle cx="480" cy="330" r="250"/><circle cx="480" cy="330" r="190" stroke-dasharray="12 18"/></g><g><path d="M230 700Q260 500 350 420H610Q700 500 730 700Z" fill="#101316" stroke="#e35f24" stroke-width="9"/><path d="M320 490L395 418L480 458L565 418L640 490L610 700H350Z" fill="url(#a)"/><ellipse cx="480" cy="285" rx="132" ry="155" fill="#17191c" stroke="#ffd15b" stroke-width="10"/><path d="M365 245Q480 90 595 245L565 360Q480 415 395 360Z" fill="url(#a)"/><path d="M395 272L456 286L432 318L380 301ZM565 272L504 286L528 318L580 301Z" fill="#ffd15b" filter="url(#g)"/><path d="M300 620L150 335L205 302L392 555ZM660 620L810 335L755 302L568 555Z" fill="#e35f24" stroke="#ffd15b" stroke-width="8"/></g><g text-anchor="middle" font-family="Arial,Microsoft YaHei,sans-serif"><text x="480" y="625" fill="#fff" font-size="44" font-weight="700">灰烬之灵</text><text x="480" y="669" fill="#ffd15b" font-size="23" letter-spacing="4">烈焰双刃</text></g></svg>